<?xml version="1.0" standalone="no"?>
<!DOCTYPE svg PUBLIC "-//W3C//DTD SVG 20010904//EN"
 "http://www.w3.org/TR/2001/REC-SVG-20010904/DTD/svg10.dtd">
<svg version="1.0" xmlns="http://www.w3.org/2000/svg"
 width="576.000000pt" height="576.000000pt" viewBox="0 0 576.000000 576.000000"
 preserveAspectRatio="xMidYMid meet">
<metadata>
Created by potrace 1.14, written by Peter Selinger 2001-2017
</metadata>
<g transform="translate(0.000000,576.000000) scale(0.100000,-0.100000)"
fill="#000000" stroke="none">
<path d="M2733 5570 c-33 -5 -81 -15 -105 -23 -23 -8 -77 -18 -118 -22 -71 -7
-196 -42 -250 -69 -14 -7 -43 -16 -65 -20 -59 -9 -330 -123 -372 -156 -14 -11
-34 -20 -44 -20 -11 0 -19 -4 -19 -10 0 -5 -6 -10 -13 -10 -20 0 -73 -28 -87
-45 -7 -8 -17 -15 -22 -15 -5 0 -53 -29 -106 -65 -143 -96 -182 -123 -237
-169 -27 -23 -63 -50 -78 -60 -32 -19 -314 -301 -364 -362 -18 -21 -48 -57
-67 -79 -20 -22 -48 -58 -63 -80 -16 -22 -45 -61 -65 -88 -20 -26 -40 -57 -44
-70 -4 -12 -20 -37 -35 -55 -16 -18 -29 -39 -29 -47 0 -8 -4 -15 -10 -15 -5 0
-15 -18 -21 -40 -7 -22 -15 -40 -18 -40 -3 0 -24 -35 -45 -78 -22 -42 -43 -84
-48 -92 -4 -8 -11 -22 -14 -30 -4 -8 -17 -38 -30 -67 -13 -28 -24 -62 -24 -75
0 -13 -12 -47 -25 -77 -24 -51 -30 -69 -54 -166 -56 -227 -74 -369 -75 -605
-1 -202 13 -354 44 -475 11 -43 20 -90 20 -105 0 -16 18 -79 41 -141 22 -63
44 -131 48 -152 9 -41 8 -39 101 -227 90 -182 123 -241 195 -341 36 -49 65
-93 65 -96 0 -28 363 -406 450 -468 23 -16 52 -39 63 -51 12 -11 60 -46 106
-78 46 -31 98 -68 116 -81 17 -14 36 -25 42 -25 5 0 19 -9 31 -20 12 -12 22
-19 22 -16 0 2 42 -19 94 -49 51 -29 111 -58 132 -65 22 -7 46 -18 54 -25 8
-6 31 -17 50 -24 19 -7 44 -17 55 -21 20 -9 77 -27 240 -80 50 -16 108 -31
130 -35 22 -3 78 -14 125 -25 122 -27 335 -53 480 -58 151 -5 563 36 640 63
19 7 60 16 90 19 64 8 186 40 250 66 25 10 65 23 90 29 54 14 69 20 140 54 30
14 69 29 85 33 17 4 47 18 67 31 21 12 41 23 45 23 5 0 19 9 33 20 14 11 35
20 47 20 12 0 23 3 25 8 2 4 19 16 38 26 19 11 53 31 74 45 22 14 53 34 70 45
17 10 33 22 36 26 3 4 15 12 27 19 108 57 399 331 544 513 41 51 119 168 119
178 0 5 6 15 13 22 21 22 76 116 83 142 3 14 12 30 20 37 8 6 14 17 14 24 0 7
9 30 19 52 43 86 61 131 72 183 6 30 18 64 25 76 8 11 18 40 23 65 5 24 16 71
24 104 8 33 20 105 27 160 6 55 16 115 22 133 15 51 12 403 -6 502 -15 86 -22
139 -32 242 -3 31 -14 88 -25 125 -10 37 -19 78 -19 91 0 12 -7 33 -15 46 -9
13 -18 48 -21 77 -4 30 -15 69 -25 87 -11 18 -19 42 -19 53 0 11 -11 41 -25
67 -14 26 -25 54 -25 62 0 16 -87 219 -120 281 -11 20 -20 44 -20 53 0 9 -6
16 -14 16 -8 0 -17 12 -21 27 -3 15 -15 39 -26 54 -10 15 -19 30 -19 34 0 3
-13 25 -28 48 -15 23 -36 59 -47 80 -11 20 -23 37 -27 37 -5 0 -16 17 -26 38
-9 20 -20 39 -23 42 -3 3 -33 41 -68 85 -34 44 -72 93 -84 108 -12 15 -40 47
-62 71 -22 23 -65 71 -95 106 -30 35 -59 67 -65 71 -23 18 -122 107 -155 138
-19 19 -51 44 -71 56 -20 13 -42 29 -50 37 -8 7 -41 31 -74 53 -33 21 -63 42
-66 47 -3 5 -41 27 -85 49 -43 23 -88 49 -99 59 -11 10 -33 22 -50 26 -16 4
-42 15 -57 25 -14 11 -32 19 -40 19 -7 0 -23 6 -34 14 -11 8 -47 22 -79 32
-33 9 -67 21 -75 26 -45 26 -192 67 -241 68 -20 0 -65 10 -100 22 -59 20 -86
22 -344 24 -154 1 -308 -2 -342 -6z m472 -470 c33 -6 103 -17 155 -25 52 -8
133 -25 180 -39 47 -13 110 -31 141 -40 31 -9 70 -23 85 -31 16 -8 33 -15 37
-15 11 0 117 -47 147 -66 14 -8 57 -30 95 -49 92 -45 133 -69 159 -94 12 -12
27 -21 33 -21 6 0 26 -12 43 -26 17 -15 49 -39 70 -53 80 -54 264 -227 358
-336 28 -33 58 -67 66 -76 18 -22 96 -133 121 -173 11 -18 39 -62 62 -97 24
-35 43 -71 43 -79 1 -8 15 -37 31 -65 42 -72 59 -111 59 -138 0 -13 4 -27 10
-33 23 -23 61 -114 71 -169 6 -33 17 -73 25 -90 7 -16 17 -55 20 -85 4 -30 13
-70 21 -88 49 -118 43 -849 -7 -917 -4 -5 -11 -39 -15 -73 -4 -35 -13 -76 -21
-90 -8 -15 -17 -48 -20 -74 -4 -26 -13 -53 -20 -59 -8 -6 -14 -17 -14 -23 0
-13 -56 -159 -77 -201 -9 -16 -29 -55 -44 -85 -16 -30 -29 -58 -29 -61 0 -10
-138 -220 -151 -229 -3 -3 -14 -19 -23 -37 -9 -18 -22 -36 -29 -40 -6 -4 -25
-27 -41 -51 -35 -51 -293 -312 -310 -312 -6 0 -29 -18 -50 -40 -22 -22 -45
-40 -52 -40 -6 0 -17 -7 -24 -15 -12 -15 -157 -113 -190 -129 -8 -4 -37 -20
-65 -36 -74 -42 -171 -89 -245 -117 -36 -13 -93 -35 -127 -49 -34 -13 -74 -24
-90 -24 -16 0 -33 -4 -39 -10 -10 -10 -132 -38 -204 -47 -25 -3 -51 -10 -59
-17 -10 -8 -117 -11 -365 -11 -335 0 -354 1 -418 22 -37 12 -91 25 -120 29
-29 4 -65 13 -80 20 -15 8 -39 14 -54 14 -14 0 -52 11 -83 24 -31 13 -90 36
-131 51 -41 15 -84 32 -95 38 -11 6 -56 29 -100 51 -44 22 -86 46 -93 53 -7 7
-18 13 -24 13 -6 0 -25 10 -42 23 -17 13 -38 27 -46 30 -16 8 -76 53 -206 153
-188 146 -393 382 -510 587 -15 26 -31 47 -35 47 -4 0 -10 13 -14 30 -4 16
-11 32 -16 36 -12 7 -109 207 -109 225 0 8 -11 32 -25 54 -13 22 -25 48 -25
57 0 17 -64 249 -76 278 -4 8 -8 35 -10 59 -2 24 -12 107 -23 185 -17 113 -20
176 -16 317 2 97 9 196 14 220 5 24 12 80 16 124 4 44 15 100 25 125 10 25 21
69 25 98 4 28 10 52 15 52 4 0 10 12 13 28 15 73 27 110 46 147 12 21 21 45
21 52 0 13 48 113 59 123 4 3 19 32 34 65 16 33 49 92 73 131 24 40 44 77 44
83 0 6 11 21 25 33 14 12 25 26 25 31 0 5 8 17 17 26 10 9 25 28 33 42 23 41
102 128 214 238 138 135 162 156 231 203 33 23 62 44 65 48 7 9 119 80 127 80
3 0 14 6 22 14 9 8 43 29 76 47 33 17 66 37 73 42 13 10 39 21 162 66 25 9 56
24 70 33 14 8 43 18 65 22 22 3 59 15 82 26 23 11 57 20 75 20 18 0 47 7 63
16 17 9 75 20 130 25 55 5 107 12 115 16 22 9 310 21 420 16 52 -2 122 -8 155
-13z"/>
<path d="M3343 4607 l-33 -12 0 -787 c0 -433 4 -789 8 -792 11 -6 82 29 109
53 11 10 37 30 59 44 58 39 74 53 74 66 0 7 5 9 10 6 6 -3 10 -1 10 4 0 6 4
11 10 11 9 0 44 26 81 62 10 9 40 32 66 50 26 18 64 45 84 61 20 15 40 27 45
27 5 0 15 9 21 19 7 11 34 34 60 52 26 18 59 43 73 56 14 13 28 23 32 23 3 0
13 6 20 13 7 7 47 38 88 69 41 31 82 62 90 70 9 7 33 26 54 42 21 16 58 48 82
70 l43 41 -8 66 c-5 36 -20 90 -35 121 -14 30 -26 62 -26 70 0 34 -94 168
-117 168 -7 0 -13 5 -13 11 0 13 -87 99 -100 99 -5 0 -20 11 -33 24 -33 33
-183 110 -242 124 -28 7 -79 21 -115 31 -78 23 -261 51 -321 50 -24 0 -59 -6
-76 -12z"/>
<path d="M2340 4518 c-14 -5 -59 -14 -100 -20 -41 -5 -82 -15 -90 -23 -8 -7
-33 -16 -55 -20 -53 -9 -128 -31 -151 -43 -45 -25 -134 -62 -148 -62 -9 0 -21
-9 -28 -20 -7 -11 -21 -20 -31 -20 -21 0 -153 -96 -161 -116 -3 -8 -12 -14
-19 -14 -8 0 -26 -17 -40 -37 -15 -21 -36 -44 -47 -51 -11 -7 -20 -19 -20 -26
0 -8 -6 -21 -13 -28 -23 -23 -67 -117 -67 -142 0 -13 -6 -29 -14 -35 -21 -18
-29 -89 -12 -107 8 -7 20 -14 26 -14 6 0 28 -9 48 -20 20 -11 87 -41 147 -66
61 -25 131 -56 156 -69 26 -14 55 -25 65 -25 11 0 30 -9 44 -20 14 -11 30 -20
37 -20 11 0 61 -21 168 -69 22 -11 69 -31 105 -45 36 -15 72 -31 80 -36 19
-12 81 -41 95 -44 14 -4 58 -23 160 -72 50 -23 111 -48 138 -55 26 -6 50 -15
53 -20 3 -5 12 -9 20 -9 19 0 19 59 -1 106 -8 20 -17 63 -21 97 -3 34 -14 98
-24 142 -10 44 -21 111 -24 149 -3 37 -10 74 -17 82 -6 7 -17 60 -24 117 -17
127 -22 154 -30 167 -3 5 -10 45 -15 89 -5 44 -16 91 -25 104 -9 14 -18 58
-22 108 -3 46 -12 93 -19 104 -8 11 -14 32 -14 47 0 42 -54 60 -110 36z"/>
<path d="M4580 3383 c-45 -16 -117 -57 -138 -79 -14 -13 -31 -24 -38 -24 -8 0
-22 -7 -31 -15 -37 -31 -90 -65 -133 -88 -25 -13 -93 -56 -151 -95 -58 -40
-111 -72 -117 -72 -6 0 -17 -8 -24 -18 -7 -10 -40 -31 -73 -47 -33 -17 -61
-33 -63 -37 -2 -5 -8 -8 -13 -8 -6 0 -20 -10 -33 -22 -13 -13 -39 -31 -57 -41
l-34 -19 24 -19 c13 -11 49 -26 80 -35 31 -9 63 -23 72 -30 8 -8 25 -14 38
-14 12 0 44 -11 71 -25 26 -13 67 -27 90 -31 23 -4 44 -13 47 -20 3 -8 13 -14
22 -14 10 0 21 -3 25 -7 3 -4 12 -8 19 -10 44 -9 153 -50 212 -78 39 -19 89
-38 113 -44 24 -5 51 -16 60 -24 9 -8 33 -18 52 -22 19 -4 53 -16 74 -26 46
-22 79 -24 94 -6 8 11 16 73 26 217 4 55 -10 301 -25 430 -12 113 -61 280 -81
280 -5 0 -8 7 -8 15 0 25 -61 42 -100 28z"/>
<path d="M1076 3131 c-15 -24 -28 -334 -23 -556 5 -208 9 -263 26 -329 12 -44
21 -86 21 -94 0 -7 17 -48 38 -90 37 -76 96 -147 142 -172 40 -22 91 -10 135
32 11 10 49 41 85 68 36 28 74 58 86 67 11 10 37 29 57 43 20 14 37 28 37 33
0 4 7 7 15 7 8 0 15 5 15 10 0 6 6 10 13 10 7 0 26 14 42 30 16 17 34 30 41
30 6 0 27 14 45 31 19 18 50 42 69 56 19 13 60 42 90 64 30 22 72 51 93 65 20
13 37 29 37 34 0 6 4 10 10 10 15 0 110 70 110 81 0 5 8 13 18 16 27 10 64 54
58 69 -3 8 -17 14 -30 14 -14 0 -42 9 -63 21 -20 11 -74 33 -119 49 -46 15
-93 35 -106 44 -12 9 -32 16 -45 16 -12 0 -24 4 -27 9 -3 4 -39 20 -81 36 -41
15 -78 31 -81 36 -3 5 -13 9 -22 9 -10 0 -36 9 -57 20 -22 12 -59 26 -82 32
-24 5 -43 14 -43 19 0 4 -15 12 -32 18 -54 16 -193 67 -206 75 -6 4 -35 15
-64 25 -29 11 -73 27 -98 36 -70 27 -99 34 -104 26z"/>
<path d="M3163 2504 c-8 -20 4 -154 16 -187 6 -14 18 -92 27 -174 10 -81 21
-150 25 -153 3 -3 12 -52 18 -110 7 -58 19 -127 26 -155 7 -27 19 -102 25
-165 7 -63 15 -117 20 -120 4 -3 7 -12 7 -20 2 -65 27 -249 36 -265 7 -11 17
-65 22 -120 l10 -100 31 -3 c18 -2 56 8 90 24 32 14 68 30 79 34 117 45 389
185 434 222 18 16 37 28 42 28 6 0 25 11 43 25 18 14 38 25 44 25 6 0 15 6 19
13 4 8 21 22 38 33 16 10 46 36 66 57 20 20 41 37 47 37 6 0 14 9 17 20 4 11
17 32 29 48 46 55 75 132 74 199 l-1 63 -51 34 c-28 18 -64 41 -81 50 -16 9
-61 37 -100 61 -38 24 -78 45 -87 45 -10 0 -22 8 -27 19 -6 10 -39 33 -73 50
-35 18 -94 52 -133 76 -38 24 -81 49 -95 55 -14 6 -39 22 -57 36 -17 13 -37
24 -43 24 -6 0 -22 11 -36 25 -14 14 -34 25 -45 25 -11 0 -22 6 -25 14 -3 8
-16 17 -29 20 -13 3 -30 12 -37 19 -7 7 -45 32 -85 55 -40 23 -75 47 -78 52
-3 6 -14 10 -24 10 -10 0 -30 9 -44 20 -14 11 -33 20 -42 20 -9 0 -13 5 -10
10 3 6 0 10 -8 10 -8 0 -20 7 -27 15 -16 20 -39 19 -47 -1z"/>
<path d="M2539 2213 c-24 -21 -57 -53 -74 -70 -16 -18 -33 -33 -37 -33 -4 0
-34 -26 -66 -57 -85 -84 -207 -193 -236 -212 -13 -9 -35 -28 -48 -41 -24 -24
-134 -124 -278 -252 -14 -13 -20 -31 -20 -62 0 -25 4 -47 9 -50 5 -3 18 -25
30 -48 12 -24 30 -56 41 -73 11 -16 24 -39 29 -50 5 -11 22 -33 38 -50 16 -16
50 -58 77 -93 27 -34 60 -65 73 -68 12 -4 23 -10 23 -14 0 -11 82 -66 112 -75
12 -4 34 -14 47 -22 70 -45 301 -69 392 -42 56 17 65 47 51 167 -27 231 -33
313 -42 582 -6 157 -14 310 -20 340 -5 30 -12 91 -15 135 -11 144 -15 148 -86
88z"/>
</g>
</svg>
